#tb 0: 1/25
0,          0,          0,        1,   152064, 0xf3c68dea
0,          1,          1,        1,   152064, 0xf52d483f
0,          2,          2,        1,   152064, 0x612f1792
0,          3,          3,        1,   152064, 0x4df34726
0,          4,          4,        1,   152064, 0xfed7c058
0,          5,          5,        1,   152064, 0x2d48025c
0,          6,          6,        1,   152064, 0x03544ab9
0,          7,          7,        1,   152064, 0x20cadfc5
0,          8,          8,        1,   152064, 0x7cd3672e
0,          9,          9,        1,   152064, 0x5f2b9ede
0,         10,         10,        1,   152064, 0xc0bbdf75
0,         11,         11,        1,   152064, 0x95571e7c
0,         12,         12,        1,   152064, 0x0d1afc5b
0,         13,         13,        1,   152064, 0x9c91c11f
0,         14,         14,        1,   152064, 0x73e667e4
0,         15,         15,        1,   152064, 0xfb7f8892
0,         16,         16,        1,   152064, 0x5707f566
0,         17,         17,        1,   152064, 0x21032449
0,         18,         18,        1,   152064, 0x199e20b7
0,         19,         19,        1,   152064, 0x23213179
0,         20,         20,        1,   152064, 0x29812daa
0,         21,         21,        1,   152064, 0x04e3eb6b
0,         22,         22,        1,   152064, 0xab206165
0,         23,         23,        1,   152064, 0x392fbf7b
0,         24,         24,        1,   152064, 0x137a1c6a
0,         25,         25,        1,   152064, 0x9caff265
0,         26,         26,        1,   152064, 0x6becf046
0,         27,         27,        1,   152064, 0xfc2c3ba6
0,         28,         28,        1,   152064, 0xcf4b9b4c
0,         29,         29,        1,   152064, 0x4e2ebd37
0,         30,         30,        1,   152064, 0xcd419daa
0,         31,         31,        1,   152064, 0xe12294b0
0,         32,         32,        1,   152064, 0x6bda7493
0,         33,         33,        1,   152064, 0xefbf5d0b
0,         34,         34,        1,   152064, 0x9500458a
0,         35,         35,        1,   152064, 0x6b5d212e
0,         36,         36,        1,   152064, 0xb928fc31
0,         37,         37,        1,   152064, 0x64f2bb2f
0,         38,         38,        1,   152064, 0xf93a724d
0,         39,         39,        1,   152064, 0xdd0d32c0
0,         40,         40,        1,   152064, 0xe1b51d95
0,         41,         41,        1,   152064, 0xbb43d295
0,         42,         42,        1,   152064, 0x6dcea069
0,         43,         43,        1,   152064, 0x89d79805
0,         44,         44,        1,   152064, 0x50b5dd43
0,         45,         45,        1,   152064, 0xe3099e3f
0,         46,         46,        1,   152064, 0x003b6ace
0,         47,         47,        1,   152064, 0x2213b672
0,         48,         48,        1,   152064, 0x5b273093
0,         49,         49,        1,   152064, 0xdbfbd9bf
0,         50,         50,        1,   152064, 0xf26b89d0
0,         51,         51,        1,   152064, 0x1470527e
0,         52,         52,        1,   152064, 0x0e668970
0,         53,         53,        1,   152064, 0x00218692
0,         54,         54,        1,   152064, 0xaabf79a8
0,         55,         55,        1,   152064, 0xf68b4663
0,         56,         56,        1,   152064, 0x4c08d01f
0,         57,         57,        1,   152064, 0x48e75380
0,         58,         58,        1,   152064, 0x4b8be58f
0,         59,         59,        1,   152064, 0x8a6c1365
0,         60,         60,        1,   152064, 0x9439ca02
0,         61,         61,        1,   152064, 0x831d9855
0,         62,         62,        1,   152064, 0xff031ffd
0,         63,         63,        1,   152064, 0x3680f4bc
0,         64,         64,        1,   152064, 0x794c95a4
0,         65,         65,        1,   152064, 0x23e53349
0,         66,         66,        1,   152064, 0x85307117
0,         67,         67,        1,   152064, 0x0bc0bf5a
0,         68,         68,        1,   152064, 0xc79f46c8
0,         69,         69,        1,   152064, 0x48be4e21
0,         70,         70,        1,   152064, 0x2ad89b4f
0,         71,         71,        1,   152064, 0xd454f9a9
0,         72,         72,        1,   152064, 0x64852f6d
0,         73,         73,        1,   152064, 0xcb7b0c05
0,         74,         74,        1,   152064, 0x4e108ced
0,         75,         75,        1,   152064, 0xf5e5a37b
0,         76,         76,        1,   152064, 0x224e29c7
0,         77,         77,        1,   152064, 0xad90d3c2
0,         78,         78,        1,   152064, 0x5ddb5d05
0,         79,         79,        1,   152064, 0x4ebf4337
0,         80,         80,        1,   152064, 0x7e2bfeed
0,         81,         81,        1,   152064, 0x00e884c7
0,         82,         82,        1,   152064, 0xa4f6a534
0,         83,         83,        1,   152064, 0x622f1511
0,         84,         84,        1,   152064, 0x8d99233d
0,         85,         85,        1,   152064, 0x5910d02c
0,         86,         86,        1,   152064, 0x20d6706c
0,         87,         87,        1,   152064, 0x8e30a417
0,         88,         88,        1,   152064, 0x180d745a
0,         89,         89,        1,   152064, 0xc25189b9
0,         90,         90,        1,   152064, 0x909101ad
0,         91,         91,        1,   152064, 0x9967be1c
0,         92,         92,        1,   152064, 0x72ff3206
0,         93,         93,        1,   152064, 0x48d07f48
0,         94,         94,        1,   152064, 0x7f8244b7
0,         95,         95,        1,   152064, 0xf871e21e
0,         96,         96,        1,   152064, 0xd4743610
0,         97,         97,        1,   152064, 0xc2c7a7b1
0,         98,         98,        1,   152064, 0x95be1a75
0,         99,         99,        1,   152064, 0x44972b2e
0,        100,        100,        1,   152064, 0xa6036c4f
0,        101,        101,        1,   152064, 0xecdd8dd6
0,        102,        102,        1,   152064, 0xbb7e8551
0,        103,        103,        1,   152064, 0x42916e6c
0,        104,        104,        1,   152064, 0x972db010
0,        105,        105,        1,   152064, 0x80dab6a0
0,        106,        106,        1,   152064, 0xc753ecdb
0,        107,        107,        1,   152064, 0x0823bffa
0,        108,        108,        1,   152064, 0x80876b2d
0,        109,        109,        1,   152064, 0x4a8b2118
0,        110,        110,        1,   152064, 0x0be2c13d
0,        111,        111,        1,   152064, 0xa6966e4f
0,        112,        112,        1,   152064, 0xf6a57650
0,        113,        113,        1,   152064, 0x49d66fd4
0,        114,        114,        1,   152064, 0x21d92047
0,        115,        115,        1,   152064, 0x155f20a8
0,        116,        116,        1,   152064, 0x5ab90c1d
0,        117,        117,        1,   152064, 0xa0c31337
0,        118,        118,        1,   152064, 0xd20de1d6
0,        119,        119,        1,   152064, 0x300ad916
0,        120,        120,        1,   152064, 0xbcb89eb5
0,        121,        121,        1,   152064, 0x08759342
0,        122,        122,        1,   152064, 0xa5d06e72
0,        123,        123,        1,   152064, 0x3b4c537f
0,        124,        124,        1,   152064, 0x7f48912b
0,        125,        125,        1,   152064, 0x200dbd1f
0,        126,        126,        1,   152064, 0x918abfde
0,        127,        127,        1,   152064, 0xd8072cdf
0,        128,        128,        1,   152064, 0x89d2902b
0,        129,        129,        1,   152064, 0xcd2e2e3c
0,        130,        130,        1,   152064, 0xf343e4a2
0,        131,        131,        1,   152064, 0xc424acad
0,        132,        132,        1,   152064, 0xf71e3031
0,        133,        133,        1,   152064, 0xf1bc1179
0,        134,        134,        1,   152064, 0x9af58d24
0,        135,        135,        1,   152064, 0x48a4d01e
0,        136,        136,        1,   152064, 0xcf24f721
0,        137,        137,        1,   152064, 0x5bc7b4f3
0,        138,        138,        1,   152064, 0x8763fc59
0,        139,        139,        1,   152064, 0xb6954051
0,        140,        140,        1,   152064, 0x044ba446
0,        141,        141,        1,   152064, 0xdaaaee7e
0,        142,        142,        1,   152064, 0x8eac550d
0,        143,        143,        1,   152064, 0x5191d08c
0,        144,        144,        1,   152064, 0x3cd76d43
0,        145,        145,        1,   152064, 0xf01f8fa9
0,        146,        146,        1,   152064, 0x0e283e9b
0,        147,        147,        1,   152064, 0x7cef69ee
0,        148,        148,        1,   152064, 0xc8e332bc
0,        149,        149,        1,   152064, 0x5b1aa484
0,        150,        150,        1,   152064, 0x3975234f
0,        151,        151,        1,   152064, 0x52b8661e
0,        152,        152,        1,   152064, 0xb4b8fed8
0,        153,        153,        1,   152064, 0x5aff9f70
0,        154,        154,        1,   152064, 0x7b575735
0,        155,        155,        1,   152064, 0x77d51523
0,        156,        156,        1,   152064, 0xf5131eba
0,        157,        157,        1,   152064, 0x4bd2b1ad
0,        158,        158,        1,   152064, 0xccfc8dca
0,        159,        159,        1,   152064, 0xcf245472
0,        160,        160,        1,   152064, 0xe055adf5
0,        161,        161,        1,   152064, 0x2a90e171
0,        162,        162,        1,   152064, 0x1bd8ea64
0,        163,        163,        1,   152064, 0x32f1d794
0,        164,        164,        1,   152064, 0xc938c42a
0,        165,        165,        1,   152064, 0x12b5644f
0,        166,        166,        1,   152064, 0x99003711
0,        167,        167,        1,   152064, 0xaecfad1c
0,        168,        168,        1,   152064, 0x94b00ae1
0,        169,        169,        1,   152064, 0xbb4f982f
0,        170,        170,        1,   152064, 0x6f7f5dc1
0,        171,        171,        1,   152064, 0x7be7c2cb
0,        172,        172,        1,   152064, 0x3b2ee4d3
0,        173,        173,        1,   152064, 0xc75f5666
0,        174,        174,        1,   152064, 0xff7a3ede
0,        175,        175,        1,   152064, 0x55866b59
0,        176,        176,        1,   152064, 0x408b8455
0,        177,        177,        1,   152064, 0x96c4ab66
0,        178,        178,        1,   152064, 0x1d87f575
0,        179,        179,        1,   152064, 0x3a3b17ac
0,        180,        180,        1,   152064, 0x9c99e591
0,        181,        181,        1,   152064, 0xc1fc663d
0,        182,        182,        1,   152064, 0x17b982dd
0,        183,        183,        1,   152064, 0x24fe9dad
0,        184,        184,        1,   152064, 0xea8760ee
0,        185,        185,        1,   152064, 0x23dcefad
0,        186,        186,        1,   152064, 0xee6d23f0
0,        187,        187,        1,   152064, 0xfddc1962
0,        188,        188,        1,   152064, 0xb23190df
0,        189,        189,        1,   152064, 0xf066a595
0,        190,        190,        1,   152064, 0x2200fef8
0,        191,        191,        1,   152064, 0x5491ab2f
0,        192,        192,        1,   152064, 0xea93fa58
0,        193,        193,        1,   152064, 0x3e13d4f4
0,        194,        194,        1,   152064, 0x3dda841d
0,        195,        195,        1,   152064, 0xfc243577
0,        196,        196,        1,   152064, 0xca4a9127
0,        197,        197,        1,   152064, 0x41908ec0
0,        198,        198,        1,   152064, 0x10a758bd
0,        199,        199,        1,   152064, 0x6a849e5b
0,        200,        200,        1,   152064, 0xb55a1f2b
0,        201,        201,        1,   152064, 0x2bfe9627
0,        202,        202,        1,   152064, 0x2bfca28c
0,        203,        203,        1,   152064, 0xd166f336
0,        204,        204,        1,   152064, 0x9facb32b
0,        205,        205,        1,   152064, 0x6a672475
0,        206,        206,        1,   152064, 0xc7b219cf
0,        207,        207,        1,   152064, 0x2b43ca53
0,        208,        208,        1,   152064, 0x43b542c4
0,        209,        209,        1,   152064, 0xdc654337
0,        210,        210,        1,   152064, 0x68003d7c
0,        211,        211,        1,   152064, 0x3cb85724
0,        212,        212,        1,   152064, 0x422701c2
0,        213,        213,        1,   152064, 0x1c667870
0,        214,        214,        1,   152064, 0x75ef3230
0,        215,        215,        1,   152064, 0x0ac82643
0,        216,        216,        1,   152064, 0x3eb3a0be
0,        217,        217,        1,   152064, 0x482bd77e
0,        218,        218,        1,   152064, 0xd3ce1171
0,        219,        219,        1,   152064, 0xeaefc7e4
0,        220,        220,        1,   152064, 0xa9c67939
0,        221,        221,        1,   152064, 0x0af0a25b
0,        222,        222,        1,   152064, 0xd094d95a
0,        223,        223,        1,   152064, 0xfda42fc6
0,        224,        224,        1,   152064, 0x4669f952
0,        225,        225,        1,   152064, 0x52d40e98
0,        226,        226,        1,   152064, 0x27c36cd1
0,        227,        227,        1,   152064, 0xa103b6ce
0,        228,        228,        1,   152064, 0x2be9026d
0,        229,        229,        1,   152064, 0x2f4ecc59
0,        230,        230,        1,   152064, 0x53144cef
0,        231,        231,        1,   152064, 0x15d54fc9
0,        232,        232,        1,   152064, 0x7e302db7
0,        233,        233,        1,   152064, 0x82521901
0,        234,        234,        1,   152064, 0x1123cdb6
0,        235,        235,        1,   152064, 0x3185878a
0,        236,        236,        1,   152064, 0xbb294983
0,        237,        237,        1,   152064, 0x83d9fe66
0,        238,        238,        1,   152064, 0xede9fb08
0,        239,        239,        1,   152064, 0xa543b551
0,        240,        240,        1,   152064, 0x39e82734
0,        241,        241,        1,   152064, 0xd0447fb5
0,        242,        242,        1,   152064, 0x8cc6f502
0,        243,        243,        1,   152064, 0xda8d1da8
0,        244,        244,        1,   152064, 0xcafdccca
0,        245,        245,        1,   152064, 0xbf0e04f4
0,        246,        246,        1,   152064, 0x0c6eefec
0,        247,        247,        1,   152064, 0xb9026d39
0,        248,        248,        1,   152064, 0x0121a7a8
0,        249,        249,        1,   152064, 0x453ebbc6
0,        250,        250,        1,   152064, 0x14ae15e3
0,        251,        251,        1,   152064, 0x51d618e1
0,        252,        252,        1,   152064, 0x2254f452
0,        253,        253,        1,   152064, 0x8c360633
0,        254,        254,        1,   152064, 0x8704d9bc
0,        255,        255,        1,   152064, 0xe5d48301
0,        256,        256,        1,   152064, 0xf25b7b3f
0,        257,        257,        1,   152064, 0xd2ad3b73
0,        258,        258,        1,   152064, 0x53db0387
0,        259,        259,        1,   152064, 0x2486341c
0,        260,        260,        1,   152064, 0x4a24570b
0,        261,        261,        1,   152064, 0x0694620a
0,        262,        262,        1,   152064, 0xbbc2a302
0,        263,        263,        1,   152064, 0x08ad9c02
0,        264,        264,        1,   152064, 0x601a63ab
0,        265,        265,        1,   152064, 0xe4234a48
0,        266,        266,        1,   152064, 0x07702235
0,        267,        267,        1,   152064, 0x719dbecf
0,        268,        268,        1,   152064, 0xf301a7ad
0,        269,        269,        1,   152064, 0xf15c70c3
0,        270,        270,        1,   152064, 0x0ab93386
0,        271,        271,        1,   152064, 0x99c05adb
0,        272,        272,        1,   152064, 0x9ed43530
0,        273,        273,        1,   152064, 0xa2f62122
0,        274,        274,        1,   152064, 0xf16f4525
0,        275,        275,        1,   152064, 0xa3403b4a
0,        276,        276,        1,   152064, 0x95521096
0,        277,        277,        1,   152064, 0x0d412988
0,        278,        278,        1,   152064, 0x829e080a
0,        279,        279,        1,   152064, 0x0805c1b5
0,        280,        280,        1,   152064, 0xa136be48
0,        281,        281,        1,   152064, 0x0f8de228
0,        282,        282,        1,   152064, 0x272cf2d3
0,        283,        283,        1,   152064, 0xa1df2a5e
0,        284,        284,        1,   152064, 0xf9db8350
0,        285,        285,        1,   152064, 0x5536997d
0,        286,        286,        1,   152064, 0xab83e81e
0,        287,        287,        1,   152064, 0xec791b49
0,        288,        288,        1,   152064, 0x04d03e19
0,        289,        289,        1,   152064, 0xd6a2bd21
0,        290,        290,        1,   152064, 0x2d35f0aa
0,        291,        291,        1,   152064, 0x137bf715
0,        292,        292,        1,   152064, 0x56ef5ae1
0,        293,        293,        1,   152064, 0x9bb5821e
0,        294,        294,        1,   152064, 0x533c7fff
0,        295,        295,        1,   152064, 0x469ad380
0,        296,        296,        1,   152064, 0x75710e84
0,        297,        297,        1,   152064, 0xbbd72551
0,        298,        298,        1,   152064, 0xf1137026
0,        299,        299,        1,   152064, 0x6238412b
